<svg width="100%" height="100%" viewBox="0 0 180 180" xmlns="http://www.w3.org/2000/svg" class="console-icon">
    <path d="M50 95C26.5279 95 7.5 114.028 7.5 137.5C7.5 160.972 26.5279 180 50 180L130 180C153.472 180 172.5 160.972 172.5 137.5C172.5 114.028 153.472 95 130 95L50 95ZM130 107.5C146.569 107.5 160 120.931 160 137.5C160 154.069 146.569 167.5 130 167.5C113.431 167.5 100 154.069 100 137.5C100 120.931 113.431 107.5 130 107.5Z" />
    <path d="M50 0C26.5279 5.08626e-06 7.5 19.0279 7.5 42.5C7.5 65.9721 26.5279 85 50 85L130 85C153.472 85 172.5 65.9721 172.5 42.5C172.5 19.0279 153.472 0 130 0L50 0ZM50 12.5C66.5685 12.5 80 25.9315 80 42.5C80 59.0685 66.5685 72.5 50 72.5C33.4315 72.5 20 59.0685 20 42.5C20 25.9315 33.4315 12.5 50 12.5Z" />
</svg>