<svg viewBox="0 0 180 180" width="100%" height="100%" xmlns="http://www.w3.org/2000/svg" class="console-icon">
    <path d="M4 34C4 17.4315 17.4315 4 34 4L146 4C162.569 4 176 17.4315 176 34L176 146C176 162.569 162.569 176 146 176L34 176C17.4315 176 4 162.569 4 146L4 34Z" fill="none" stroke-width="8"/>
    <path d="M18.8955 37.3373C18.8955 26.2916 27.8498 17.3373 38.8955 17.3373L54.8955 17.3373C65.9412 17.3373 74.8955 26.2916 74.8955 37.3373L74.8955 142.663C74.8955 153.708 65.9412 162.663 54.8955 162.663L38.8955 162.663C27.8498 162.663 18.8955 153.708 18.8955 142.663L18.8955 37.3373Z" stroke="none" />
</svg>