<svg viewBox="0 0 180 180" width="100%" height="100%" xmlns="http://www.w3.org/2000/svg" class="console-icon">
    <path d="M176 34C176 17.4315 162.569 4 146 4L34 4C17.4315 4 4 17.4315 4 34L4 146C4 162.569 17.4315 176 34 176L146 176C162.569 176 176 162.569 176 146L176 34Z" fill="none" stroke-width="8" />
    <path d="M161.104 37.3373C161.104 26.2916 152.15 17.3373 141.104 17.3373L125.104 17.3373C114.059 17.3373 105.104 26.2916 105.104 37.3373L105.104 142.663C105.104 153.708 114.059 162.663 125.104 162.663L141.104 162.663C152.15 162.663 161.104 153.708 161.104 142.663L161.104 37.3373Z" stroke="none" />
</svg>